# xmcd CD database file
#
# Track frame offsets:
#	150
#	124258
#	220667
#
# Disc length: 3408 seconds
#
# Revision: 0
# Processed by: cddbd v1.5.2PL0 Copyright (c) Steve Scherf et al.
# Submitted via: CDex 1.51
#
DISCID=250d4e03
DTITLE=Steve Miller Trio and Elton Dean - Private Session
DYEAR=1985
DGENRE=Jazz
TTITLE0=Dedicated to Few
TTITLE1=Bishop of Stortford
TTITLE2=One for Three (1976)
EXTD=YEAR: 1985
EXTT0=
EXTT1=
EXTT2=
PLAYORDER=
